HIERARCHY
ROOT joint_0
{
	OFFSET 0.000000 0.000000 0.000000
	CHANNELS 6 Xposition Yposition Zposition Zrotation Yrotation Xrotation 
	JOINT joint_1
	{
		OFFSET -0.613770 -1.125488 108.300049
		CHANNELS 3 Zrotation Yrotation Xrotation
		JOINT joint_2
		{
			OFFSET -10.925537 -0.900513 98.259033
			CHANNELS 3 Zrotation Yrotation Xrotation
			JOINT joint_3
			{
				OFFSET -11.287842 0.313599 98.110962
				CHANNELS 3 Zrotation Yrotation Xrotation
				JOINT joint_4
				{
					OFFSET -2.124268 2.484680 136.491943
					CHANNELS 3 Zrotation Yrotation Xrotation
					JOINT joint_5
					{
						OFFSET 16.640869 1.801270 81.862061
						CHANNELS 3 Zrotation Yrotation Xrotation
						End Site
						{
							OFFSET 0.000000 0.000000 0.000000
						}
					}
				}
				JOINT joint_6
				{
					OFFSET 0.447998 -28.248108 77.258057
					CHANNELS 3 Zrotation Yrotation Xrotation
					JOINT joint_7
					{
						OFFSET 7.918701 -130.256348 -24.086060
						CHANNELS 3 Zrotation Yrotation Xrotation
						JOINT joint_8
						{
							OFFSET 62.431885 -29.384277 -258.572021
							CHANNELS 3 Zrotation Yrotation Xrotation
							JOINT joint_9
							{
								OFFSET 53.743164 -21.907532 -238.024963
								CHANNELS 3 Zrotation Yrotation Xrotation
								End Site
								{
									OFFSET 0.000000 0.000000 0.000000
								}
							}
						}
					}
				}
				JOINT joint_10
				{
					OFFSET -2.846924 31.052063 76.130981
					CHANNELS 3 Zrotation Yrotation Xrotation
					JOINT joint_11
					{
						OFFSET 9.073730 131.055603 -18.752930
						CHANNELS 3 Zrotation Yrotation Xrotation
						JOINT joint_12
						{
							OFFSET 52.981201 29.883301 -260.613037
							CHANNELS 3 Zrotation Yrotation Xrotation
							JOINT joint_13
							{
								OFFSET 62.237793 15.935547 -236.423035
								CHANNELS 3 Zrotation Yrotation Xrotation
								End Site
								{
									OFFSET 0.000000 0.000000 0.000000
								}
							}
						}
					}
				}
			}
		}
	}
	JOINT joint_14
	{
		OFFSET 22.046143 -72.816772 -98.122925
		CHANNELS 3 Zrotation Yrotation Xrotation
		JOINT joint_15
		{
			OFFSET -23.673828 -54.692932 -469.927032
			CHANNELS 3 Zrotation Yrotation Xrotation
			JOINT joint_16
			{
				OFFSET -34.875244 -46.505249 -395.890999
				CHANNELS 3 Zrotation Yrotation Xrotation
				JOINT joint_17
				{
					OFFSET 168.486328 14.224182 -74.182999
					CHANNELS 3 Zrotation Yrotation Xrotation
					End Site
					{
						OFFSET 0.000000 0.000000 0.000000
					}
				}
			}
		}
	}
	JOINT joint_18
	{
		OFFSET -1.731934 82.408569 -92.846924
		CHANNELS 3 Zrotation Yrotation Xrotation
		JOINT joint_19
		{
			OFFSET -6.908936 32.203369 -472.535034
			CHANNELS 3 Zrotation Yrotation Xrotation
			JOINT joint_20
			{
				OFFSET -13.963135 23.196533 -399.207993
				CHANNELS 3 Zrotation Yrotation Xrotation
				JOINT joint_21
				{
					OFFSET 168.417725 19.834229 -73.041004
					CHANNELS 3 Zrotation Yrotation Xrotation
					End Site
					{
						OFFSET 0.000000 0.000000 0.000000
					}
				}
			}
		}
	}
}
MOTION
Frames: 10
Frame Time: 0.016667
-2469.143555 969.763367 1048.453003 -7.441829 6.249326 -1.450792 3.045117 7.287781 -1.120879 -0.664525 -1.128438 0.323438 -0.950644 1.543580 0.067643 0.271656 -0.393499 -1.252724 0.000000 0.000000 0.000000 0.558602 -4.731895 -4.587447 1.580685 -4.358948 3.841796 0.287189 -5.890312 -1.245049 0.000000 0.000000 0.000000 1.174354 -1.198526 2.303812 0.696399 -0.986449 -1.125300 -2.962941 -18.475352 -9.217316 0.000000 0.000000 0.000000 0.591459 -39.057789 4.915161 -5.255957 62.391819 7.668064 -4.426775 2.553009 -2.134205 0.000000 0.000000 0.000000 1.044093 -2.650172 -0.152525 2.342217 15.156736 -2.549034 0.976417 -12.360615 1.828326 0.000000 0.000000 0.000000 
-2451.124512 968.119568 1048.931030 -7.140436 6.183993 -1.181203 2.967475 7.370231 -1.148669 -0.716696 -1.170722 0.363392 -1.007379 1.555201 0.063252 0.326785 0.142656 -1.512696 0.000000 0.000000 0.000000 1.175080 -4.716151 -3.910668 1.824608 -4.312106 4.419918 -0.775818 -3.898899 -5.145237 0.000000 0.000000 0.000000 1.225722 -1.178819 1.927076 0.906899 -0.986359 -0.895119 -3.079009 -20.226333 -9.508001 0.000000 0.000000 0.000000 0.601473 -40.507330 4.869458 -5.194331 60.899149 7.805148 -3.985590 1.825066 -1.871771 0.000000 0.000000 0.000000 0.968299 -2.252242 -0.269239 2.242663 16.582452 -2.759389 0.821177 -11.972959 1.731940 0.000000 0.000000 0.000000 
-2431.988281 966.090881 1050.160034 -6.757723 6.371108 -1.056460 2.639669 7.108948 -0.957969 -0.636236 -1.134065 0.378999 -0.906400 1.484018 0.041055 0.402256 0.661336 -1.862108 0.000000 0.000000 0.000000 2.101750 -4.547869 -3.093412 2.109769 -4.057268 5.203064 -2.053181 -1.654819 -10.004037 0.000000 0.000000 0.000000 1.169223 -1.050429 1.508631 1.103202 -0.865213 -0.708440 -3.139006 -21.776811 -9.528600 0.000000 0.000000 0.000000 0.501367 -41.610158 5.067780 -5.334097 57.223428 7.062853 -4.117327 0.897235 -1.776513 0.000000 0.000000 0.000000 0.732895 -2.426246 -0.189458 2.253673 18.628884 -2.966141 0.722938 -11.218289 1.618191 0.000000 0.000000 0.000000 
-2411.431152 963.804626 1051.616943 -6.251308 6.483763 -0.964912 2.313784 6.750616 -0.637867 -0.417968 -1.060164 0.325835 -0.634025 1.417674 0.030575 0.451846 1.181226 -2.107375 0.000000 0.000000 0.000000 3.051543 -4.500235 -2.351925 2.213936 -3.894958 5.453080 -3.115725 0.453295 -13.809704 0.000000 0.000000 0.000000 1.207948 -0.948973 1.029124 1.167215 -0.812035 -0.529177 -3.240325 -22.754510 -9.532857 0.000000 0.000000 0.000000 0.384197 -42.010082 5.369407 -5.517328 52.369027 5.890402 -4.139926 -0.250436 -1.634618 0.000000 0.000000 0.000000 0.491887 -2.601487 -0.002817 2.277011 20.815675 -3.224006 0.633777 -9.938950 1.448005 0.000000 0.000000 0.000000 
-2389.078369 961.288574 1053.545044 -5.621496 6.415188 -0.897842 2.057356 6.321797 -0.173118 -0.024180 -0.934585 0.135071 -0.131001 1.375037 0.061624 0.439545 1.714419 -2.101809 0.000000 0.000000 0.000000 4.035260 -4.701654 -1.990950 2.043045 -3.928551 4.981070 -3.853841 2.360738 -15.803713 0.000000 0.000000 0.000000 1.506865 -0.944149 0.434350 1.007464 -0.938603 -0.358093 -3.423762 -22.824119 -9.568807 0.000000 0.000000 0.000000 0.210230 -41.391719 5.926503 -5.711265 45.865037 4.043741 -3.993939 -1.836507 -1.411217 0.000000 0.000000 0.000000 0.337837 -2.526132 0.249645 2.305608 22.844204 -3.473575 0.592050 -7.878616 1.203212 0.000000 0.000000 0.000000 
-2365.303711 958.516052 1055.699951 -4.635291 6.165309 -0.786466 1.815265 6.018326 0.292518 0.397142 -0.878762 -0.054608 0.386463 1.326924 0.128748 0.394400 2.242310 -1.973616 0.000000 0.000000 0.000000 4.994205 -4.990765 -1.882001 1.693022 -4.020285 4.132748 -4.402167 4.067889 -16.701451 0.000000 0.000000 0.000000 1.932615 -0.955146 -0.161519 0.717204 -1.115550 -0.231968 -3.649834 -22.331339 -9.601745 0.000000 0.000000 0.000000 -0.053287 -39.695627 6.491649 -5.825763 37.476539 1.757084 -3.882420 -2.756913 -1.276784 0.000000 0.000000 0.000000 0.130881 -2.378040 0.538314 2.261188 24.988564 -3.679482 0.520483 -5.122524 0.863248 0.000000 0.000000 0.000000 
-2340.921143 955.536560 1056.829956 -3.265357 5.734504 -0.559858 1.626799 5.954479 0.584253 0.723443 -0.941508 -0.093675 0.751112 1.282931 0.196774 0.358252 2.767697 -1.909185 0.000000 0.000000 0.000000 5.472363 -5.197764 -1.840920 1.334935 -4.110473 3.321457 -4.725241 5.176088 -16.885916 0.000000 0.000000 0.000000 2.252725 -0.896731 -0.530973 0.434276 -1.183728 -0.153396 -3.909154 -21.902776 -9.758790 0.000000 0.000000 0.000000 -0.183249 -37.535846 6.525545 -5.578916 29.455485 0.192216 -3.524432 -2.661658 -1.144927 0.000000 0.000000 0.000000 -0.267662 -2.383226 0.891579 2.070196 27.639652 -4.008922 0.327341 -2.017393 0.438492 0.000000 0.000000 0.000000 
-2316.042480 952.406128 1056.761963 -1.966960 5.326136 -0.458055 1.561643 5.681100 1.101094 1.111879 -0.900869 -0.183643 1.197014 1.235649 0.220605 0.342429 3.335425 -1.981449 0.000000 0.000000 0.000000 5.098844 -5.265317 -1.813316 1.088601 -4.230195 2.711771 -4.724351 5.452707 -16.355471 0.000000 0.000000 0.000000 2.331789 -0.751260 -0.536984 0.181461 -1.091387 -0.127855 -4.215940 -21.667504 -10.136095 0.000000 0.000000 0.000000 0.147665 -35.460732 6.136170 -4.730140 22.773286 -0.288793 -2.522882 -3.112726 -0.717303 0.000000 0.000000 0.000000 -0.787623 -2.732882 1.541973 1.842065 30.726106 -4.521311 0.134271 1.917382 -0.077502 0.000000 0.000000 0.000000 
-2290.554932 949.070862 1055.668945 -0.615760 4.880443 -0.451498 1.556295 5.322595 1.783292 1.528944 -0.804434 -0.333668 1.687112 1.179630 0.239755 0.319489 3.926435 -2.077822 0.000000 0.000000 0.000000 4.267587 -5.243149 -1.850544 0.906375 -4.349969 2.166838 -4.455619 5.071449 -15.223903 0.000000 0.000000 0.000000 2.311311 -0.559992 -0.287581 -0.085973 -0.913896 -0.129887 -4.565608 -21.464965 -10.635999 0.000000 0.000000 0.000000 0.767173 -33.258960 5.588611 -3.552285 16.856919 -0.471554 -1.415761 -3.942818 -0.217172 0.000000 0.000000 0.000000 -1.423728 -3.339329 2.442474 1.547753 34.164079 -5.213925 -0.075004 6.641255 -0.691685 0.000000 0.000000 0.000000 
-2264.944580 945.412598 1052.807983 1.056339 4.291752 -0.368707 1.450051 5.233135 2.263016 1.829833 -0.793667 -0.383407 2.039319 1.141247 0.297894 0.276207 4.442703 -2.101787 0.000000 0.000000 0.000000 3.657574 -5.157813 -1.965733 0.734661 -4.354121 1.753076 -4.147860 4.285569 -14.120217 0.000000 0.000000 0.000000 2.374704 -0.333908 0.036580 -0.356054 -0.704643 -0.069698 -4.946233 -21.482271 -11.107959 0.000000 0.000000 0.000000 1.302524 -31.175167 5.034339 -2.739404 12.846526 -0.827676 -0.929898 -3.959645 -0.030227 0.000000 0.000000 0.000000 -2.244737 -4.252414 3.472902 1.123149 38.378410 -6.282108 -0.410259 10.974548 -1.308097 0.000000 0.000000 0.000000 
